<svg xmlns="http://www.w3.org/2000/svg" xmlns:xlink="http://www.w3.org/1999/xlink" version="1.1" x="0px" y="0px" viewBox="0 0 100 125" style="enable-background:new 0 0 100 100;" fill="#d11965" xml:space="preserve">
  <path d="M71.2,49.3c-4.5,0-8.2,3.7-8.2,8.2c0,2.8,1.4,5.3,3.5,6.7v-6.7c0-2.6,2.1-4.6,4.6-4.6c2.6,0,4.6,2.1,4.6,4.6  c0,2,0,4.6,0.1,6.6c2.1-1.5,3.5-3.9,3.5-6.7C79.3,53,75.7,49.3,71.2,49.3z M51,43.4v34.7h11.5c-0.6-1.1-1.1-2.3-1.5-3.5L61,74.2  h-6.1V47.3h26.9v19.8c1.6,0.5,3,1.3,3.9,2.4V43.4H51z M85.7,40.1H51V5.4h34.7V40.1z M54.9,36.2h26.9V9.3H54.9V36.2z M47.8,78H13.1  V43.4h34.7V78z M17,74.2h26.9V47.3H17V74.2z M47.8,40.1H13.1V5.4h34.7V40.1z M17,36.2h26.9V9.3H17V36.2z M70.4,85.3l-3.8-4.9  c-1.5-2-2.6-4.2-3.4-6.5l-1.6-5c-0.3-1.1,0.2-2.2,1.2-2.7l0,0c1.1-0.5,2.4-0.1,3,1l2.7,5.3c0.1,0.1,0.3,0.1,0.3-0.1V57.6  c0-1.3,1.1-2.4,2.4-2.4l0,0c1.3,0,2.4,1.1,2.4,2.4c0,0,0,10.6,0,10.6c0.4-0.3,10.5,0.5,10.8,3.8c0.4,3.8-3.3,13.4-3.3,13.4H70.4z   M67.4,87.5v8h17.3v-8H67.4z"/>
</svg>
