<svg xmlns="http://www.w3.org/2000/svg" xmlns:xlink="http://www.w3.org/1999/xlink" version="1.1" x="0px" y="0px" viewBox="0 0 100 125" enable-background="new 0 0 100 100" xml:space="preserve"><path
  fill="#d11965"
  d="M67.547,37.553l-1.464,1.464L55.345,49.754l-4.542-4.542l1.816-1.817c1.423-1.422,2.207-3.314,2.207-5.326  s-0.784-3.904-2.206-5.326c-1.422-1.423-3.313-2.207-5.325-2.207c-2.012,0-3.903,0.784-5.325,2.207l-0.536,0.536l-0.484-0.485  c-0.172-2.141,0.557-4.341,2.193-5.978c2.966-2.966,7.773-2.966,10.737,0l1.465,1.463l1.465-1.463c2.965-2.966,7.771-2.966,10.737,0  C70.513,29.78,70.513,34.587,67.547,37.553z M52.787,38.069c0-1.467-0.572-2.847-1.609-3.884c-1.037-1.038-2.416-1.609-3.883-1.609  s-2.846,0.571-3.884,1.609l-1.589,1.589l-0.389,0.389l-1.977-1.978c-1.038-1.038-2.417-1.609-3.884-1.609s-2.846,0.571-3.884,1.609  c-2.141,2.142-2.141,5.626,0,7.768l9.744,9.745l7.927-7.928l1.816-1.816C52.215,40.916,52.787,39.536,52.787,38.069z M53.421,81.768  L75.26,53.723c3.656-4.899,5.588-10.665,5.588-16.673C80.848,21.038,67.01,8.012,50,8.012S19.152,21.038,19.152,37.05  c0,6.011,1.933,11.777,5.614,16.707l21.813,28.011c0.865,1.111,2.111,1.748,3.421,1.748S52.556,82.879,53.421,81.768z M76.848,37.05  c0,5.14-1.657,10.079-4.769,14.249L50.265,79.311c-0.234,0.301-0.295,0.301-0.529,0l-21.788-27.98  c-3.137-4.201-4.795-9.139-4.795-14.281c0-13.806,12.044-25.038,26.848-25.038S76.848,23.244,76.848,37.05z M69.007,80.74  c0-2.989-1.863-5.775-5.245-7.848l-2.09,3.412c1.246,0.762,3.335,2.353,3.335,4.436c0,3.429-6.163,7.248-15.007,7.248  s-15.007-3.819-15.007-7.248c0-2.085,2.09-3.675,3.335-4.437l-2.086-3.412c-3.385,2.069-5.249,4.857-5.249,7.849  c0,6.308,8.349,11.248,19.007,11.248S69.007,87.048,69.007,80.74z"/>
</svg>
