<svg xmlns="http://www.w3.org/2000/svg" data-name="Layer 1" viewBox="0 0 128 160" x="0px" y="0px" fill="#d11965">
  <title>solid 1</title><circle cx="50.21" cy="51.71" r="5"/><path
    d="M73.51,75.87A1,1,0,0,0,74,76a1,1,0,0,0,1-1V56H65V68.09a1,1,0,0,0,1,1,1,1,0,0,0,.5-.13,1,1,0,0,0,.5-.79c-.12-.91-.4-3.56.09-4.66.4-.9,1.38-1.35,2.91-1.35a5.17,5.17,0,0,1,1.39.16,2.16,2.16,0,0,1,1.53,1.2,4.68,4.68,0,0,1,.33,1.11c.66,3.16-.14,9.64-.24,10.46A1,1,0,0,0,73.51,75.87Z"/><path d="M89.09,70.5c0,.31-.07.54-.08.66a1,1,0,0,0,.51.8,1,1,0,0,0,.49.13,1,1,0,0,0,1-1V56H81V81a1,1,0,0,0,2,.05,98.91,98.91,0,0,1-.76-10.45c0-3.35.24-5.74.85-7.11.4-.9,1.38-1.36,2.91-1.36s2.51.46,2.91,1.36c.18.39.73,1.59.17,6.94Z"/><path
    d="M105,50H57a6.82,6.82,0,0,1-.17,4h47.91c.12.66.21,1.33.28,2h-4V66.46a3,3,0,1,1-6,0V56H93V71.09a3,3,0,0,1-6,0,1,1,0,0,1,0-.15s0-.25.08-.64v0c.47-4.48.11-5.67,0-5.93,0,0-.21-.18-1.09-.18s-1.1.19-1.1.19a17.79,17.79,0,0,0-.66,6.25A99.2,99.2,0,0,0,85,80.89,1,1,0,0,1,85,81a3,3,0,0,1-6,0V56H77V75a3,3,0,0,1-6,0,1,1,0,0,1,0-.13c0-.07.9-6.9.27-9.9a2.82,2.82,0,0,0-.19-.67,1.21,1.21,0,0,0-.23-.08,3.28,3.28,0,0,0-.86-.09c-.9,0-1.1.19-1.1.19A12.56,12.56,0,0,0,69,68a1,1,0,0,1,0,.13,3,3,0,0,1-6,0V56H61v9.61a3,3,0,1,1-6,0V56.8a7,7,0,0,1-6.15,1.77s0,.09,0,.14A28.06,28.06,0,0,0,54.71,76a29,29,0,0,0,5.75,5.22c1,.74,2,1.51,2.94,2.32,3.53,3,5.32,8.39,5.32,15.88,0,.59,0,1.91,0,2.78a3.41,3.41,0,0,0-2.19,3.29v3.1A3.28,3.28,0,0,0,69.56,112H86.61c.42,0,.89.62.89,1.45v3.1c0,.83-.47,1.45-.89,1.45H69.52a3.26,3.26,0,0,0-3,3.45v3.1a3.26,3.26,0,0,0,3,3.45H82.87a1,1,0,1,0,0-2H69.52c-.55,0-1-.66-1-1.45v-3.1c0-.79.47-1.45,1-1.45H86.61a3.21,3.21,0,0,0,2.89-3.45v-3.1A3.21,3.21,0,0,0,86.61,110H69.56c-.58,0-1.06-.66-1.06-1.45v-3.1c0-.79.49-1.45,1.06-1.45H86.34a1,1,0,0,0,1-1.08c0-.45,0-2.72,0-3.55,0-7.49,1.79-12.83,5.32-15.88.94-.81,2-1.58,2.94-2.32A29,29,0,0,0,101.29,76,28.24,28.24,0,0,0,106,50.71,1,1,0,0,0,105,50Z"/><path d="M99,66.46V56H97V66.46a1,1,0,1,0,2,0Z"/><path d="M59,65.61V56H57v9.61c0,.74.47,1.39,1,1.39S59,66.35,59,65.61Z"/><path d="M29.19,4,46.21,46a7,7,0,0,1,3.52-1.24L31.83.62A1,1,0,0,0,30.26.24,29.15,29.15,0,0,0,22,33.17,29.51,29.51,0,0,0,43.23,51.32a7,7,0,0,1,1.43-3.86L27.73,5.73C28.19,5.14,28.68,4.58,29.19,4Z"/><path
    d="M52,45.12l.19,0,3.06-.6V48h2V44.1L59,43.74c.38,1.23.84,1.78,1.48,1.78l.24,0a1.21,1.21,0,0,0,.7-.47c.1-.14.34-.52.23-1.81l2.39-.47L66.19,48h2.16l-2.27-5.65,2.41-.48a1,1,0,0,0-.39-2l-2.78.55L61.39,30.7a4.45,4.45,0,0,0,.28-2.43,4.52,4.52,0,0,0-5.06-3.73l-1-2.85a1,1,0,1,0-1.89.65l1,2.89a4.5,4.5,0,0,0-1.2,1.13A4.47,4.47,0,0,0,55.2,33v9.44l-3.44.68a1,1,0,0,0,.19,2Zm11.36-4.26-2,.39c-.46-2.06-1-2.85-2-2.67s-1,1.4-1,1.79a11.15,11.15,0,0,0,.15,1.43l-1.39.27V33.5h0a4.58,4.58,0,0,0,.73-.06,4.46,4.46,0,0,0,2-.9ZM54.72,29.4a2.47,2.47,0,0,1,.44-1.85A2.53,2.53,0,0,1,59.7,28.6a2.45,2.45,0,0,1-.09,1.14,1,1,0,0,0-.38.74,2.56,2.56,0,0,1-.37.41,2.46,2.46,0,0,1-1.24.58,2.54,2.54,0,0,1-1,0A2.51,2.51,0,0,1,54.72,29.4Z"/><path d="M73,28h6V48h2V17s0,0,0,0a1,1,0,0,0-.06-.31l-3.72-10A1,1,0,0,0,76.28,6h-.56a1,1,0,0,0-.94.65l-3.72,10A1,1,0,0,0,71,17s0,0,0,0V48h2ZM76,9.12,78.56,16H73.44ZM73,18h6v4H73Zm0,6h6v2H73Z"/><path
    d="M106.19,26.55l-7.64-3.3a3,3,0,0,0-3.94,1.57L84.62,48H86.8l2.35-5.46,4.3,1.85a1,1,0,1,0,.79-1.84l-4.3-1.84.83-1.94,4.31,1.85a1,1,0,0,0,.79-1.84l-4.31-1.85L92.4,35l4.32,1.85A1,1,0,0,0,97.51,35l-4.32-1.85L94.13,31l4.21,1.89A1,1,0,1,0,99.16,31l-4.23-1.9,1.52-3.52a1,1,0,0,1,1.31-.52l7.64,3.3a1,1,0,0,1,.52,1.32L98,48h2.18l7.54-17.5A3,3,0,0,0,106.19,26.55Z"/><circle cx="87" cy="127" r="1"/><circle cx="91" cy="127" r="1"/>
</svg>
