<svg xmlns="http://www.w3.org/2000/svg" viewBox="0 0 1000 1250" version="1.1" x="0px" y="0px"><path fill="#1790d9" opacity="1.00" d=" M 452.40 58.52 C 458.42 57.28 464.87 61.20 466.58 67.08 C 469.50 76.04 460.47 86.58 451.10 84.26 C 443.94 82.98 439.32 74.71 441.91 67.93 C 443.73 63.47 447.47 59.37 452.40 58.52 Z"/><path fill="#1790d9" opacity="1.00" d=" M 395.37 79.53 C 402.35 77.50 410.17 82.82 410.87 90.04 C 412.02 97.38 405.37 104.63 397.94 104.02 C 390.62 103.95 384.68 96.41 386.26 89.27 C 387.09 84.63 390.80 80.68 395.37 79.53 Z"/><path
 fill="#d11965"
  opacity="1.00"
  d=" M 465.09 112.88 C 465.78 107.14 470.92 103.11 476.05 101.31 C 481.96 100.09 488.20 101.61 493.40 104.51 C 502.07 109.24 509.63 115.68 517.37 121.74 C 531.58 132.81 543.42 146.64 553.63 161.41 C 561.74 174.04 569.38 187.26 573.33 201.85 C 574.79 206.86 576.00 211.93 576.99 217.05 C 589.72 202.18 602.09 186.73 617.51 174.50 C 623.12 168.79 634.12 168.06 639.34 174.66 C 645.13 182.96 646.61 193.25 648.04 203.03 C 650.91 223.83 652.35 245.54 645.89 265.83 C 641.50 278.91 633.79 290.54 625.61 301.52 C 615.14 314.94 603.20 327.33 589.36 337.30 C 573.63 348.00 555.25 353.88 539.16 363.93 C 575.01 454.22 591.71 552.05 587.51 649.12 C 598.58 634.85 612.26 621.91 629.29 615.22 C 635.02 612.81 641.83 612.51 647.42 615.47 C 651.19 617.01 654.47 620.10 655.43 624.16 C 657.22 631.77 654.39 639.80 649.92 645.96 C 643.96 653.36 636.00 658.73 628.72 664.72 C 613.68 676.96 597.37 687.85 584.31 702.33 C 582.98 703.56 582.94 705.45 582.69 707.13 C 581.92 713.27 581.22 719.43 580.04 725.51 C 586.77 718.62 594.12 712.19 602.65 707.63 C 607.21 704.70 612.74 703.48 618.12 704.14 C 622.64 704.24 626.99 706.93 628.95 711.02 C 632.05 717.32 631.69 724.89 629.28 731.36 C 625.89 740.43 618.87 747.62 611.14 753.21 C 600.43 761.09 589.86 769.16 579.50 777.49 C 575.70 780.41 572.19 783.74 568.04 786.19 C 555.20 837.82 536.65 888.05 512.39 935.42 C 510.27 939.58 505.62 942.24 500.97 942.02 C 491.98 942.07 485.82 931.12 490.52 923.43 C 504.96 895.02 517.41 865.58 527.59 835.38 C 535.26 812.62 542.07 789.52 546.96 766.02 C 543.67 755.84 535.37 748.28 527.22 741.81 C 520.62 736.42 513.42 731.67 507.65 725.33 C 501.55 718.35 497.57 709.33 497.48 699.99 C 497.70 692.56 500.87 684.40 507.84 680.88 C 512.12 678.09 517.63 678.77 521.97 681.03 C 533.86 686.09 541.54 697.08 548.63 707.36 C 551.13 711.06 553.55 714.81 555.91 718.61 C 556.65 713.08 557.81 707.58 558.01 701.99 C 557.97 695.26 560.41 688.78 560.14 682.02 C 558.93 677.51 556.14 673.33 552.23 670.74 C 540.73 662.48 527.66 656.82 515.56 649.54 C 506.53 644.16 497.62 638.35 490.09 630.97 C 485.15 626.26 482.59 619.68 481.42 613.08 C 480.66 607.38 482.24 600.62 487.59 597.57 C 493.79 593.07 502.24 592.59 509.20 595.58 C 520.03 599.99 529.13 607.60 537.95 615.10 C 546.86 623.19 555.21 631.92 562.80 641.26 C 563.81 612.83 562.84 584.35 560.10 556.04 C 558.33 534.84 554.61 513.88 550.93 492.95 C 543.05 452.09 531.36 411.96 515.99 373.29 C 507.47 377.69 498.81 381.82 490.34 386.34 C 477.22 393.09 463.88 400.27 449.10 402.49 C 438.69 404.25 427.75 402.99 417.97 399.04 C 410.14 395.49 402.56 391.35 395.42 386.57 C 383.38 378.67 370.61 370.55 363.19 357.79 C 358.71 350.07 354.11 341.24 356.10 332.05 C 357.95 323.80 365.84 318.16 373.92 317.04 C 382.88 315.78 391.96 316.97 400.97 316.49 C 386.86 302.10 377.27 283.87 370.91 264.88 C 365.61 248.47 363.54 231.27 362.27 214.14 C 361.96 209.04 360.91 203.64 362.85 198.74 C 365.77 191.88 374.64 189.63 381.24 191.84 C 387.35 194.61 391.73 199.94 396.23 204.71 C 412.19 221.81 425.58 241.29 443.33 256.68 C 449.91 262.52 456.98 267.78 463.94 273.15 C 454.23 252.48 444.70 231.71 435.00 211.03 C 428.37 197.14 421.74 183.06 412.24 170.84 C 406.76 163.34 399.10 157.92 392.78 151.22 C 386.70 145.42 388.85 134.84 395.21 130.17 C 399.33 127.12 404.82 127.77 409.54 128.69 C 421.43 131.62 432.95 136.19 443.41 142.59 C 456.10 150.32 469.27 157.57 480.24 167.73 C 493.85 181.21 505.00 197.01 514.28 213.72 C 502.71 185.06 485.97 158.95 470.89 132.09 C 467.91 126.12 464.12 119.84 465.09 112.88 M 507.58 145.81 C 522.52 172.27 538.01 199.08 545.11 228.92 C 549.40 245.09 551.55 261.89 550.36 278.62 C 553.37 262.96 555.49 246.92 553.77 230.97 C 552.27 217.86 549.28 204.72 543.18 192.94 C 534.37 175.19 522.07 159.29 507.58 145.81 M 442.03 170.76 C 444.98 175.06 447.32 179.72 449.70 184.34 C 459.66 204.24 468.67 224.60 478.17 244.72 C 486.38 262.02 493.57 279.93 504.05 296.03 C 506.58 299.77 509.00 303.74 512.82 306.33 C 510.92 279.57 506.10 252.38 493.65 228.36 C 486.33 213.79 476.79 200.37 465.71 188.43 C 458.92 181.19 450.32 176.08 442.03 170.76 M 579.20 253.39 C 577.98 262.19 577.36 271.13 575.33 279.82 C 571.80 297.76 564.03 314.99 552.39 329.13 C 557.55 326.35 562.95 324.06 568.03 321.13 C 576.95 316.45 584.50 309.59 591.66 302.59 C 603.64 290.18 614.62 276.37 621.43 260.39 C 627.97 241.88 625.45 221.85 622.91 202.83 C 607.43 218.87 593.44 236.27 579.20 253.39 M 389.19 233.87 C 393.07 258.37 402.35 283.02 420.37 300.66 C 433.96 313.72 448.82 325.81 465.74 334.27 C 476.55 339.72 489.06 339.81 500.77 337.93 C 500.70 335.67 500.74 333.41 500.90 331.16 C 497.39 327.97 494.65 323.92 490.55 321.41 C 468.62 307.39 447.07 292.62 427.23 275.72 C 413.13 263.15 400.61 248.88 389.19 233.87 M 382.24 341.32 C 385.67 347.41 390.22 352.86 396.02 356.83 C 405.90 363.90 416.04 370.76 427.11 375.84 C 433.39 378.49 440.50 379.04 447.15 377.56 C 459.09 375.16 469.57 368.64 480.49 363.60 C 463.48 362.63 448.13 354.10 434.47 344.54 C 432.11 343.08 430.02 340.55 427.02 340.71 C 412.09 340.44 397.17 342.02 382.24 341.32 Z"/><path fill="#d11965" opacity="1.00" d=" M 619.44 129.62 C 626.64 126.88 635.30 132.36 635.87 140.03 C 636.85 146.92 631.02 153.76 624.06 153.83 C 617.07 154.40 610.58 147.98 611.07 140.97 C 611.12 135.93 614.69 131.23 619.44 129.62 Z"/><path fill="#1790d9" opacity="1.00" d=" M 366.23 139.25 C 374.13 137.47 382.14 145.01 380.87 153.00 C 380.19 160.77 371.26 166.17 364.06 163.14 C 356.93 160.68 353.73 151.21 357.92 144.93 C 359.74 141.99 362.82 139.86 366.23 139.25 Z"/><path fill="#d11965" opacity="1.00" d=" M 354.39 291.62 C 361.42 289.36 369.51 294.65 370.21 302.00 C 371.28 308.70 365.88 315.49 359.12 315.97 C 352.55 316.84 346.01 311.53 345.49 304.92 C 344.72 299.08 348.74 293.17 354.39 291.62 Z"/>
</svg>
