<svg xmlns="http://www.w3.org/2000/svg" xmlns:xlink="http://www.w3.org/1999/xlink" version="1.1" x="0px" y="0px" viewBox="0 0 100 125" enable-background="new 0 0 100 100" xml:space="preserve" fill="#d11965">
  <g><path d="M22.268,35.036c5.822,0,10.558-4.736,10.558-10.559c0-5.822-4.736-10.558-10.558-10.558s-10.558,4.736-10.558,10.558   C11.709,30.299,16.446,35.036,22.268,35.036z"/><path
    d="M50,35.036c5.822,0,10.558-4.736,10.558-10.559c0-5.822-4.736-10.558-10.558-10.558s-10.558,4.736-10.558,10.558   C39.441,30.299,44.178,35.036,50,35.036z M50,16.919c4.167,0,7.558,3.391,7.558,7.558c0,4.168-3.391,7.559-7.558,7.559   s-7.558-3.391-7.558-7.559C42.441,20.31,45.832,16.919,50,16.919z"/><path d="M77.688,35.036c5.822,0,10.559-4.736,10.559-10.559c0-5.822-4.736-10.558-10.559-10.558s-10.559,4.736-10.559,10.558   C67.129,30.299,71.865,35.036,77.688,35.036z"/><path
    d="M88.563,73.434c0.828,0,1.5-0.672,1.5-1.5V50.059c0-6.824-5.552-12.375-12.375-12.375c-5.922,0-10.881,4.184-12.089,9.75   h-3.367c-1.208-5.566-6.163-9.75-12.085-9.75s-10.877,4.184-12.085,9.75h-3.705c-1.208-5.566-6.167-9.75-12.089-9.75   c-6.824,0-12.375,5.551-12.375,12.375v21.875c0,0.828,0.671,1.5,1.5,1.5h20.49v6.599c-0.133-0.038-0.271-0.065-0.416-0.065H12.893   V76c0-0.828-0.671-1.5-1.5-1.5s-1.5,0.672-1.5,1.5v10.934c0,0.828,0.671,1.5,1.5,1.5s1.5-0.672,1.5-1.5v-3.967h18.574   c0.204,0,0.397-0.041,0.574-0.115c0.681,3.186,3.515,5.582,6.9,5.582c3.892,0,7.058-3.166,7.058-7.058v-7.942H48.5v13.5   c0,0.828,0.671,1.5,1.5,1.5s1.5-0.672,1.5-1.5v-13.5h2.457v7.942c0,3.892,3.166,7.058,7.058,7.058c3.344,0,6.146-2.34,6.87-5.467   h19.107c0.024,0,0.047-0.006,0.07-0.007v3.974c0,0.828,0.672,1.5,1.5,1.5s1.5-0.672,1.5-1.5V76c0-0.828-0.672-1.5-1.5-1.5   s-1.5,0.672-1.5,1.5v3.974c-0.023-0.001-0.046-0.007-0.07-0.007h-18.92v-6.533H88.563z M34.643,52.518v-2.084h30.67v2.084H34.643z    M37.771,57.934h-3.129v-2.416h3.129V57.934z M65.313,55.518v2.416h-1.454h-1.337v-2.416H65.313z M50.146,40.684   c4.256,0,7.841,2.857,8.979,6.75H41.165C42.303,43.541,45.89,40.684,50.146,40.684z M45.998,70.434v-5.442   c0-3.258-2.221-5.999-5.227-6.809v-2.665h7.768c-0.024,0.107-0.04,0.218-0.04,0.333v14.583H45.998z M51.5,70.434V55.851   c0-0.115-0.016-0.226-0.04-0.333h8.062v2.578c-3.176,0.688-5.564,3.517-5.564,6.896v5.442H51.5z"/></g>
</svg>
